<svg width="24" height="24" viewBox="0 0 24 24" fill="none" xmlns="http://www.w3.org/2000/svg">
<path d="M19 13.4447C17.4695 17.6665 13.393 20.1982 11.3452 20.9191C11.046 21.027 10.5532 21.027 10.254 20.9191C7.70213 20.0208 2 16.3105 2 10.0219C2 7.24593 4.1911 5 6.89257 5C8.4941 5 9.91083 5.79057 10.7996 7.01235C11.3539 6.25027 12.1171 5.65596 12.9995 5.31662" stroke="white" stroke-width="1.5" stroke-linecap="round" stroke-linejoin="round"/>
<path d="M22.1178 9.28792L22.1191 9.28596C22.1888 9.17968 22.2901 8.92299 22.4166 8.53289C22.4536 8.41893 22.4928 8.29308 22.5328 8.16481C22.5656 8.05957 22.599 7.9527 22.632 7.84944C21.9899 7.44487 21.5673 6.8424 21.5681 6.10579C21.5688 5.47723 21.8802 4.91044 22.3695 4.45336C22.0721 4.28835 21.7523 4.2 21.5 4.2C21.3607 4.2 21.1563 4.23848 20.9196 4.3073C20.6933 4.37311 20.4827 4.45296 20.3406 4.50835L20.3351 4.51053L20.3351 4.5105C20.2859 4.5292 20.2599 4.54315 20.2154 4.56711C20.1766 4.58797 20.1237 4.61642 20.0291 4.66218C19.8763 4.7361 19.6375 4.83697 19.3398 4.83697C19.0413 4.83697 18.7906 4.73919 18.6267 4.66685C18.5304 4.62436 18.4693 4.59476 18.4212 4.5714C18.3613 4.54238 18.3213 4.52298 18.2582 4.50044L18.2562 4.49971L18.2562 4.4997C18.1431 4.45894 18.04 4.41006 17.96 4.37113C17.9353 4.35912 17.9131 4.34822 17.8925 4.33811C17.8383 4.31142 17.7952 4.29025 17.7473 4.26892C17.6273 4.21541 17.5586 4.2 17.5 4.2C17.0355 4.2 16.4489 4.4968 16.0521 5.10943C15.8111 5.48316 15.6642 6.12641 15.7345 6.92951C15.8034 7.71766 16.0769 8.58666 16.5817 9.36258L22.1178 9.28792ZM22.1178 9.28792C21.9383 9.5637 21.7006 9.85857 21.4464 10.0771C21.179 10.3069 20.9768 10.3817 20.856 10.3834L20.8538 10.3834C20.786 10.3846 20.736 10.3755 20.687 10.3608C20.6275 10.3429 20.5689 10.3172 20.4566 10.2664L20.4548 10.2655C20.4233 10.2514 20.3979 10.2383 20.3573 10.2175C20.3458 10.2116 20.3332 10.2052 20.3189 10.1979C20.2603 10.168 20.1786 10.1273 20.0802 10.0907C19.8681 10.0118 19.6355 9.97229 19.336 9.97517M22.1178 9.28792L17.803 10.3834M17.803 10.3834L17.8049 10.3834C17.8763 10.3846 17.928 10.3752 17.9782 10.3603C18.0398 10.3419 18.0986 10.3162 18.215 10.2648C18.2459 10.2508 18.2704 10.2387 18.3051 10.2213C18.3207 10.2135 18.3384 10.2047 18.3597 10.1942C18.4215 10.1637 18.5034 10.1248 18.6017 10.0896C18.8107 10.0147 19.0404 9.9755 19.336 9.97517M17.803 10.3834C17.6712 10.3815 17.4742 10.3101 17.2254 10.1051M17.803 10.3834L17.2254 10.1051M19.336 9.97517C19.3373 9.97516 19.3385 9.97516 19.3398 9.97516V10.6752M19.336 9.97517C19.3348 9.97518 19.3335 9.97519 19.3323 9.9752L19.3398 10.6752M19.3398 10.6752C18.9634 10.6752 18.8051 10.7541 18.628 10.8425C18.5873 10.8629 18.5456 10.8837 18.5 10.9041M19.3398 10.6752L18.5 10.9041M18.5 10.9041C18.4943 10.9066 18.4887 10.9091 18.4831 10.9116C18.2756 11.0034 18.084 11.0882 17.7932 11.0833L18.5 10.9041ZM17.2254 10.1051C16.9849 9.90689 16.7583 9.63399 16.5818 9.36267L17.2254 10.1051ZM20.0864 3.85615C20.0042 3.8874 19.9252 3.92864 19.8463 3.96988C19.6863 4.05345 19.5264 4.13697 19.3398 4.13697C19.1383 4.13697 18.9503 4.04762 18.7638 3.95893C18.6739 3.91618 18.5843 3.87359 18.4936 3.84122L20.0864 3.85615ZM20.1745 10.907C20.3812 11.0005 20.575 11.0882 20.8657 11.0833L20.1681 10.9041L20.1745 10.907Z" stroke="white" stroke-width="1.4"/>
<path fill-rule="evenodd" clip-rule="evenodd" d="M21.0414 1.48037C21.2867 1.40865 21.5234 1.59561 21.4784 1.84718C21.4173 2.18851 21.2332 2.50608 21.0125 2.7496C20.7534 3.03848 20.3453 3.27853 19.9128 3.36528C19.6867 3.41063 19.479 3.23649 19.5132 3.00842C19.5657 2.65795 19.7686 2.3258 20.0029 2.08167C20.2621 1.81661 20.6502 1.59474 21.0414 1.48037Z" fill="white"/>
</svg>
