<svg width="24" height="24" viewBox="0 0 24 24" fill="none" xmlns="http://www.w3.org/2000/svg">
<path d="M18 13.4447C16.4695 17.6665 12.393 20.1982 10.3452 20.9191C10.046 21.027 9.5532 21.027 9.25402 20.9191C6.70213 20.0208 1 16.3105 1 10.0219C1 7.24593 3.1911 5 5.89257 5C7.4941 5 8.91083 5.79057 9.79959 7.01235C10.3539 6.25027 11.1171 5.65596 11.9995 5.31662" stroke="#BD00FF" stroke-width="1.5" stroke-linecap="round" stroke-linejoin="round"/>
<path d="M14 5H23" stroke="#BD00FF" stroke-width="1.5" stroke-miterlimit="10" stroke-linecap="round" stroke-linejoin="round"/>
<path d="M15.998 3H20.9975C22.5995 3 23 3.31077 23 4.55032V7.44965C23 8.6892 22.5995 8.99997 21.002 8.99997H15.998C14.4005 9.0035 14 8.69273 14 7.45319V4.55032C14 3.31077 14.4005 3 15.998 3Z" stroke="#BD00FF" stroke-width="1.5" stroke-linecap="round" stroke-linejoin="round"/>
</svg>
