<svg width="24" height="24" viewBox="0 0 24 24" fill="none" xmlns="http://www.w3.org/2000/svg">
<path d="M6.17001 6.98001L6.57998 4.51001C6.81998 3.06001 8.07001 2 9.54001 2H14C16.76 2 19 4.24 19 7C19 7.18 18.99 7.34999 18.97 7.51999C18.85 8.96999 18.21 10.28 17.24 11.24C16.16 12.33 14.66 13 13 13H9.86999C9.36999 13 8.95 13.37 8.88 13.86L8.11999 19.14C8.05999 19.53 7.78 19.85 7.41 19.95C7.32 19.99 7.23 20 7.13 20H5.17999C4.55999 20 4.09 19.45 4.19 18.84L5.42999 11.38" stroke="white" stroke-width="1.5" stroke-miterlimit="10" stroke-linecap="round" stroke-linejoin="round"/>
<path d="M21 11C21 12.38 20.44 13.63 19.54 14.54C18.63 15.44 17.38 16 16 16H13.85C13.36 16 12.94 16.35 12.86 16.84L12.14 21.16C12.06 21.65 11.64 22 11.15 22H8.21999C7.58999 22 7.11998 21.42 7.23998 20.8L7.40999 19.95C7.77999 19.85 8.05998 19.53 8.11998 19.14L8.87999 13.86C8.94999 13.37 9.36998 13 9.86998 13H13C14.66 13 16.16 12.33 17.24 11.24C18.21 10.28 18.85 8.97002 18.97 7.52002C20.18 8.21002 21 9.51003 21 11Z" stroke="white" stroke-width="1.5" stroke-miterlimit="10"/>
</svg>
