<svg width="635" height="1359" viewBox="0 0 635 1359" fill="none" xmlns="http://www.w3.org/2000/svg">
<rect width="635" height="1359" fill="#1E2932"/>
<path d="M100.886 321.967C105.246 341.83 109.346 362.45 115.314 381.845C119.172 394.382 120.799 407.592 124.773 420.08C129.563 435.137 135.916 449.52 140.163 464.807C144.042 478.774 150.79 492.109 153.95 506.329C157.342 521.594 161.295 536.556 166.454 551.297C169.597 560.277 172.659 569.202 175.913 578.15C177.701 583.067 178.679 588.004 180.562 592.899C181.958 596.528 184.57 599.1 184.57 603.319" stroke="white" stroke-width="4" stroke-linecap="round"/>
<path d="M98 321.967C113.977 295.544 150.722 282.667 177.997 270.667C186.636 266.865 194.378 260.104 201.563 254.154C210.756 246.541 220.946 240.115 230.74 233.313C238.802 227.715 246.002 221.33 253.826 215.518C258.637 211.944 266.277 210.566 271.861 208.705C279.81 206.055 287.476 202.3 295.347 199.327C300.068 197.543 306.573 197.925 310.817 195.639C320.411 190.473 331.184 186.895 339.033 179.047C354.022 164.058 373.678 154.662 388.81 139.529C397.604 130.736 407.839 122.686 419.11 117.727C431.618 112.223 442.889 94 456.543 94C461.676 94 463.807 105.527 465.2 109.15C469.313 119.843 473.136 132.168 473.136 143.697C473.136 157.698 472.319 178.592 481.152 189.948C489.999 201.324 498.927 214.657 509.928 223.213C516.347 228.206 518.242 236.584 523.635 242.611C526.531 245.848 531.384 251.024 535.177 253.032C542.716 257.023 545.277 263.326 545.277 271.789C545.277 284.734 546.791 298.638 548.484 311.547C550.318 325.534 554.987 337.873 562.591 349.702C569.067 359.776 566.317 360.055 558.583 367.016C553.004 372.037 546.171 376.062 539.506 379.68C523.248 388.506 508.319 401.187 495.099 413.988C480.933 427.704 461.27 435.421 448.287 450.379C432.428 468.652 409.64 478.748 392.337 495.107C377.824 508.828 355.878 516.133 337.83 524.284C320.057 532.311 303.361 544.405 288.454 556.828C278.302 565.287 268.689 576.607 256.711 581.997C248.227 585.815 238.393 584.562 229.298 584.562C218.717 584.562 188.578 584.562 177.997 584.562" stroke="white" stroke-width="4" stroke-linecap="round"/>
<path d="M177.356 669.689C178.704 661.432 177.57 644.171 182.806 637.626C189.215 629.616 173.324 624.232 173.027 619.19C172.581 611.606 181.333 600.468 187.455 597.227C190.895 595.406 198.039 594.827 200.12 598.99C202.285 603.32 198.495 608.977 202.204 613.098C207.998 619.535 208.023 627.841 200.441 631.855C197.9 633.2 200.441 651.103 200.441 655.261C200.441 663.986 201.117 672.638 193.227 676.583C189.161 678.615 186.213 679.789 181.684 679.789C175.829 679.789 177.356 676.095 177.356 671.132" stroke="white" stroke-width="4" stroke-linecap="round"/>
<path d="M174.47 675.46C174.47 686.779 171.584 698.177 171.584 709.367C171.584 716.085 167.325 728.571 171.584 733.895C176.178 739.637 185.317 742.964 191.784 745.838C195.962 747.695 200.228 747.602 204.769 747.602C209.642 747.602 212.037 743.256 216.312 741.831" stroke="white" stroke-width="4" stroke-linecap="round"/>
<path d="M198.998 674.018C199.221 682.948 198.998 692.277 198.998 700.71C198.998 707.968 198.159 696.424 202.525 700.79C204.235 702.5 204.769 710.496 204.769 712.974C204.769 717.729 204.117 720.214 202.204 724.517C201.567 725.95 200.537 728.749 200.441 730.288C200.365 731.5 200.784 724.02 201.162 722.433C202.267 717.792 202.15 712.402 203.407 708.004C203.714 706.928 212.003 705.76 213.426 705.76" stroke="white" stroke-width="4" stroke-linecap="round"/>
<path d="M200.441 655.261C203.67 675.038 211.995 691.743 216.232 710.81C218.004 718.785 221.735 726.196 223.446 733.895C224.279 737.642 227.581 751.794 230.74 753.373" stroke="white" stroke-width="4" stroke-linecap="round"/>
<path d="M201.884 636.504C201.884 646.688 204.788 662.796 209.819 671.853C211.656 675.159 213.426 682.465 213.426 686.282C213.426 690.944 217.255 695.739 217.755 699.989C217.98 701.9 221.336 709.876 222.404 711.211C224.997 714.452 224.976 719.912 227.133 723.795C231.261 731.225 231.228 741.363 235.069 749.045" stroke="white" stroke-width="4" stroke-linecap="round"/>
<path d="M220.641 688.446C227.194 684.609 233.125 684.34 239.397 681.552C243.813 679.59 246.611 683.428 246.611 676.903C246.611 673.656 243.435 671.365 246.932 668.567C248.849 667.034 252.281 671.671 253.505 672.895C257.282 676.672 264.976 683.557 262.162 689.889C260.923 692.677 257.055 695.624 256.711 698.546C255.737 706.83 258.171 701.204 263.204 705.119C271.542 711.604 266.811 741.282 266.811 751.209C266.811 753.172 268.071 761.463 264.727 760.507C260.254 759.229 261.04 760.606 261.04 765.637C261.04 769.935 263.509 784.716 256.711 785.116C247.213 785.674 246.231 790.887 257.032 790.887C264.589 790.887 271.769 789.444 279.797 789.444C288.894 789.444 298.125 792.33 307.531 792.33C316.506 792.33 324.775 793.773 333.903 793.773C344.845 793.773 350.366 798.541 352.018 783.673C352.987 774.954 353.894 766.438 359.152 759.866C364.951 752.617 364.923 737.151 364.923 728.124C364.923 719.842 365.28 708.459 360.595 701.431" stroke="white" stroke-width="4" stroke-linecap="round"/>
<path d="M359.152 702.874C351.035 698.122 347.465 693.315 341.838 686.282C338.618 682.257 327.888 684.757 323.081 682.354C314.782 678.204 316.084 672.466 314.344 664.639C313.515 660.908 311.249 655.321 308.333 652.696C305.345 650.007 307.21 657.521 307.21 658.868C307.21 670.353 297.135 682.565 286.369 685.64C280.128 687.424 276.389 694.157 279.476 699.989C282.487 705.676 277.408 710.088 271.14 710.088" stroke="white" stroke-width="4" stroke-linecap="round"/>
<path d="M262.483 763.473C275.878 763.473 289.568 766.191 302.16 763.393C306.645 762.396 312.202 756.463 315.867 756.259C322.255 755.904 324.882 756.834 329.574 760.587C332.438 762.878 334.624 773.594 334.624 765.237C334.624 757.114 328.585 752.272 320.917 750.568C318.746 750.085 316.085 750.488 313.863 750.488C310.745 750.488 319.645 747.722 322.761 747.602C329.113 747.358 331.39 748.354 334.624 754.015C338.214 760.297 340.163 746.087 336.708 742.632C333.151 739.075 326.177 740.388 321.639 740.388C314.303 740.388 310.74 742.63 318.032 735.338C322.546 730.823 326.861 727.841 331.418 724.196C333.071 722.873 334.877 723.462 336.388 721.952C339.425 718.914 332.27 721.372 331.017 722.433C325.843 726.811 320.965 730.638 316.188 734.937C314.226 736.703 312.982 733.547 312.982 731.41C312.982 728.219 316.153 721.986 318.112 719.467C320.763 716.057 324.524 711.729 324.524 707.203" stroke="white" stroke-width="4" stroke-linecap="round"/>
<path d="M214.869 743.273C214.552 759.125 208.522 774.63 206.132 790.165C204.19 802.789 201.884 815.535 201.884 828.4C201.884 865.973 193.227 903.359 193.227 940.941C193.227 953.181 191.784 965.814 191.784 977.733C191.784 985.531 191.35 995.887 193.547 1003.3C195.599 1010.23 194.67 1018.11 194.67 1025.35C194.67 1033.14 201.121 1031.84 207.655 1031.84C214.148 1031.84 220.641 1031.84 227.133 1031.84C231.518 1031.84 229.298 988.605 229.298 982.783C229.298 964.903 235.069 947.157 235.069 929.399C235.069 919.748 237.423 907.089 239.718 897.656C244.755 876.948 252.24 856.698 253.826 835.294C254.843 821.554 261.04 807.3 261.04 793.773" stroke="white" stroke-width="4" stroke-linecap="round"/>
<path d="M337.51 796.658C337.51 815.893 338.953 835.399 338.953 854.371C338.953 859.014 341.838 863.715 341.838 868.8C341.838 876.561 340.395 884.391 340.395 891.885C340.395 907.655 338.953 923.592 338.953 939.579C338.953 965.021 340.395 990.18 340.395 1015.65C340.395 1021.96 340.766 1028.42 340.395 1034.73C340.136 1039.13 328.849 1037.61 325.967 1037.61C314.361 1037.61 302.511 1036.17 290.538 1036.17C276.192 1036.17 263.007 1039.05 248.776 1039.05C243.485 1039.05 238.195 1039.05 232.905 1039.05C227.951 1039.05 224.537 1035.23 220.641 1033.28" stroke="white" stroke-width="4" stroke-linecap="round"/>
<path d="M214.869 1037.61C214.869 1050.91 213.426 1033.94 213.426 1047.29C213.426 1057.69 214.941 1058.53 217.208 1068.5C221.003 1085.2 220.003 1097.45 221.708 1114.5C222.985 1120.25 243.708 1184 245.84 1212.91C245.84 1222.33 235.709 1227.05 228.526 1231.27C225.421 1233.1 223.49 1238 219.869 1240.33C215.23 1243.31 210.97 1247.01 206.242 1249.71C200.413 1253.04 190.168 1264.62 199.319 1268.14C220.97 1276.47 229.896 1258.39 246.611 1250.03C252.243 1247.21 263.368 1246.27 266.811 1240.25C269.678 1235.23 272.582 1234.64 272.582 1228.38C272.582 1220.62 270.471 1215.24 268.575 1207.86C261.275 1179.48 270.551 1148.23 264.246 1119.85C261.273 1106.47 255.268 1089.51 255.268 1075.85C255.268 1063.1 255.268 1050.36 255.268 1037.61" stroke="white" stroke-width="4" stroke-linecap="round"/>
<path d="M282.682 1040.5C282.682 1068.22 280.302 1088.02 285.208 1115C286.293 1120.97 287.906 1130.5 289.208 1136C291.205 1144.43 292.708 1150.5 294.461 1167.14C296.079 1182.5 297.782 1195.82 297.782 1209.31C297.782 1227.26 302.208 1233.84 285.208 1257C281.499 1262.83 278.208 1273.28 278.208 1280C278.208 1280 278.025 1289.52 279.708 1290C286.876 1290 292.966 1290.32 295.782 1287.5C302.644 1280.64 310.883 1259.19 313.708 1250C315.984 1242.61 316.708 1227.6 316.708 1220C316.708 1200.14 325.753 1141.07 325.753 1122C325.753 1093.36 325.753 1109.88 325.753 1081.5C325.753 1064.93 321.208 1053.98 321.208 1037.5" stroke="white" stroke-width="4" stroke-linecap="round"/>
<path d="M270.015 611.764C272.61 618.023 278.157 625.584 286.137 625.584C291.156 625.584 296.048 624.907 297.995 630.531C302.439 643.371 305.331 655.048 305.331 668.577" stroke="white" stroke-width="4" stroke-linecap="round"/>
<path d="M270.015 601.016C272.011 610.108 275.243 615.02 282.981 619.442C287.425 621.981 293.103 621.298 297.653 623.707C308.07 629.221 308.402 651.165 308.402 660.9" stroke="white" stroke-width="4" stroke-linecap="round"/>
<path d="M265.708 587.003C282.208 583.003 290.708 583.503 306.008 590.268C316.757 596.003 326.828 607.154 326.828 619.101C326.828 630.873 326.828 642.645 326.828 654.417C326.828 662.732 328.453 673.817 323.757 680.861" stroke="white" stroke-width="4" stroke-linecap="round"/>
<path d="M260.802 590.267C249.102 594.833 243.18 598.389 238.964 610.57C235.639 620.173 237.769 627.43 237.769 637.1C237.769 640.838 240.84 644.11 240.84 647.848C240.84 651.943 240.84 656.037 240.84 660.132C240.84 666.439 241.367 679.063 234.698 682.397" stroke="white" stroke-width="4" stroke-linecap="round"/>
<path d="M250.589 605.835C250.589 605.835 246.982 611.142 246.982 623.455C246.982 632.407 249.552 653.256 255.608 659.984C271.994 678.191 295.208 657.503 298.26 641.151" stroke="white" stroke-width="4" stroke-linecap="round"/>
<path d="M231.232 765.289C228.961 762.167 227.055 755.844 230.625 752.988C232.513 751.478 238.534 750.476 240.977 750.476C242.211 750.476 245.563 751.184 244.096 750.042C242.651 748.919 241.199 747.757 239.981 746.404C238.933 745.239 237.273 738.868 235.563 738.868C235.312 738.868 238.433 742.861 238.595 743.069C239.613 744.379 240.448 745.531 241.757 746.577C243.879 748.275 245.804 750.668 247.777 752.641C250.183 755.048 251.807 758.04 253.451 761.001C255.329 764.381 257.739 765.931 257.739 769.966" stroke="white" stroke-width="4" stroke-linecap="round"/>
<path d="M251.328 784.723C249.614 783.995 247.551 782.494 248.188 780.263C248.662 778.605 246.919 779.746 245.782 779.999C243.192 780.574 239.288 782.593 238.152 778.619C237.986 778.039 238.479 774.75 238.416 774.687C237.438 773.709 235.473 774.964 234.543 773.102C233.931 771.879 234.482 769.344 233.78 768.466C233.014 767.509 232.312 766.454 232.312 765.179" stroke="white" stroke-width="4" stroke-linecap="round"/>
<path d="M279 651.914C274 653.028 270.735 653.028 270.735 653.028C268.5 653.028 265 653.028 262.5 653.028" stroke="white" stroke-width="4" stroke-linecap="round"/>
<path d="M250.5 626C251.784 624.946 254.659 624 257 624C258.321 624.175 261.5 625 261.5 625.5M264 626.684C265.5 627.5 266 630.5 265.5 633M271 643C269.759 643 268.995 643.251 268.059 643.644C266.779 644.181 265.327 643.995 264.216 643.162V643.162C264.076 643.057 263.905 643 263.73 643H263" stroke="white" stroke-width="2" stroke-linecap="round"/>
<path d="M256.5 628C254.5 627.5 255.932 625 257.649 625C258.517 625 260 628.5 256.5 628Z" stroke="white" stroke-width="2" stroke-linecap="round"/>
<path d="M277.5 628C275.5 627.5 276.932 625 278.649 625C279.517 625 281 628.5 277.5 628Z" stroke="white" stroke-width="2" stroke-linecap="round"/>
<path d="M273.34 624.684C274.623 622.63 277.338 622.325 279.679 622.325C280.863 622.325 283.728 623.935 284.25 624.979" stroke="white" stroke-width="4" stroke-linecap="round"/>
<path d="M120.37 399.164C125.966 386.105 134.928 382.451 145.883 374.549C153.631 368.961 160.242 361.733 168.073 356.312C181.02 347.348 195.299 337.264 209.309 329.989C227.6 320.492 244.974 308.655 263.48 299.804C272.022 295.719 279.015 291.285 286.569 285.969C294.797 280.179 305.151 278.424 314.328 274.56C340.591 263.502 361.662 246.523 385.21 231.348C393.607 225.936 402.094 219.86 409.826 213.56C415.627 208.833 422.925 205.634 428.422 200.983C435.446 195.039 442.47 187.414 450.252 182.836C455.737 179.61 459.263 173.235 464.806 169.54" stroke="white" stroke-width="4" stroke-linecap="round"/>
<path d="M152.711 499.423C166.564 472.25 187.891 452.75 214.16 437.974C238.343 424.371 264.578 412.304 289.803 400.781C315.568 389.012 339.714 372.57 362.212 355.503C380.657 341.51 399.387 329.271 415.934 313.1C428.576 300.746 445.499 291.3 460.045 281.118C470.774 273.607 484.609 269.4 493.913 260.096C500.152 253.857 511.06 245.206 514.935 237.457" stroke="white" stroke-width="4" stroke-linecap="round"/>
<path d="M182.338 362.177C166.045 372.651 147.877 390.698 132.208 402.093C132.208 415.838 135.443 418.149 135.443 423.115C135.443 430.701 137.795 438.174 139.934 445.395C141.271 449.906 140.492 468.582 145.145 470.909C145.778 471.225 149.819 494.438 150.356 493.901C152.809 491.448 156.102 488.524 158.89 486.355C177.308 472.03 195.978 437.845 216.296 425.838C229.18 418.225 241.636 410.024 255.106 403.289C264.411 398.637 275.009 406.64 283.854 391.071C293.755 384.837 303.412 378.386 312.961 371.666C323.269 364.413 333.961 359.09 344.404 352.262C353.499 346.315 364.24 343.546 373.512 337.708C381.98 332.376 391.668 317.999 399.834 312.346C409.728 305.496 421.42 318.755 428.941 309.562C436.265 300.611 445.651 295.161 454.006 287.642C459.761 282.463 509.786 245.608 510.208 238.003C510.471 233.273 501.55 229.838 494.708 222.503C487.887 215.191 481.496 214.368 481.496 208.669C481.496 204.82 460.23 156.333 456.432 158.503C454.303 159.719 450.804 169.509 449.208 171.503C446.972 174.299 439.208 181.003 456.432 200.768C448.907 208.292 433.22 186.788 425.708 194.299C409.948 210.059 384.867 222.695 368.708 238.003C354.811 251.169 356.687 274.503 335.708 274.503C316.809 274.503 290.726 294.195 276.128 303.58C268.416 308.537 260.231 312.906 252.68 318.133C244.078 324.089 236.671 331.669 227.616 336.73C212.304 345.287 197.08 352.7 182.338 362.177Z" fill="white" stroke="white" stroke-width="20" stroke-linecap="round"/>
<path d="M159.179 290.012C142.887 300.485 124.719 308.532 109.05 319.928C109.05 333.673 112.284 335.984 112.284 340.95C112.284 348.535 114.636 356.008 116.776 363.229C118.113 367.74 117.333 386.416 121.987 388.743C122.62 389.06 126.661 382.272 127.197 381.736C129.65 379.283 132.943 376.358 135.732 374.189C154.149 359.865 172.819 345.679 193.138 333.673C206.022 326.059 218.477 317.859 231.948 311.124C241.253 306.471 251.851 304.475 260.695 298.906C270.596 292.672 280.254 286.221 289.803 279.501C300.111 272.247 310.802 266.925 321.246 260.096C330.341 254.149 341.082 251.38 350.353 245.542C358.821 240.211 368.51 235.834 376.676 230.18C386.569 223.331 398.262 213.589 405.783 204.397C413.107 195.445 422.493 189.995 430.847 182.477C436.602 177.297 460.286 168.108 460.708 160.503C460.971 155.773 460.708 150.503 460.708 144.003C460.708 134.003 458.338 132.202 458.338 126.503C458.338 122.655 455.007 102.833 451.208 105.003C449.08 106.219 443.762 110.14 442.167 112.134C439.931 114.929 435.818 116.057 433.273 118.602C425.748 126.127 414.103 128.07 406.591 135.581C390.831 151.341 369.387 159.083 353.228 174.391C339.331 187.557 320.035 209.967 299.056 209.967C280.156 209.967 267.568 224.03 252.969 233.414C245.258 238.372 237.073 242.74 229.522 247.968C220.92 253.923 213.513 261.504 204.457 266.564C189.145 275.121 173.921 280.535 159.179 290.012Z" fill="#008CFF" stroke="#008CFF" stroke-width="20" stroke-linecap="round"/>
<path d="M202.032 453.336C182.227 467.047 171.703 482.118 159.179 502.657C162.708 517.003 167.273 536.005 173.733 550.54C177.644 559.341 182.535 575.098 187.208 583.51H199.606C207.436 583.51 214.455 580.276 222.604 580.276C232.128 580.276 237.527 576.517 246.591 574.503C262.06 571.066 281.133 556.066 292.139 545.06C298.567 538.631 306 532.64 312.801 526.913C317.492 522.963 327.674 521.269 333.464 520.085C339.965 518.756 345.443 515.739 351.611 513.976C362.091 510.982 371.65 500.355 378.293 492.236C385.361 483.597 397.61 474.703 406.951 468.698C420.321 460.103 434.953 455.1 448.276 446.059C461.113 437.348 472.508 425.421 483.402 414.526C489.311 408.617 496.047 404.208 501.28 397.547C504.922 392.911 510.26 385.948 514.935 382.275C524.302 374.915 534.566 370.146 544.402 363.589C551.863 358.615 559.432 355.62 550.87 347.059C547.145 343.333 541.669 332.34 540.719 327.115C538.9 317.11 534.34 308.547 534.34 298.007C534.34 293.535 536.763 278.487 533.981 275.009C529.038 268.831 523.206 270.182 521.044 260.994C520.841 260.131 517.687 247.878 516.552 247.878C515.955 247.878 508.207 255.239 506.76 256.053C484.683 268.472 468.633 287.797 446.659 301.78C419.035 319.359 392.315 337.192 367.692 358.737C342.884 380.444 317.694 394.292 288.545 408.867C279.018 413.63 269.908 419.355 260.695 424.678C256.269 427.235 251.235 428.607 246.591 430.697C242.641 432.475 240.56 436.093 236.799 437.974C225.151 443.798 213.046 445.711 202.032 453.336Z" fill="#008CFF" stroke="#008CFF" stroke-width="20" stroke-linecap="round"/>
</svg>
