<svg width="474" height="1202" viewBox="0 0 474 1202" fill="none" xmlns="http://www.w3.org/2000/svg">
<path d="M5.67722 230.964C10.0374 250.827 14.138 271.447 20.1055 290.841C23.9631 303.379 25.5906 316.589 29.5641 329.076C34.355 344.134 40.7078 358.517 44.9543 373.804C48.8339 387.771 55.5813 401.105 58.7413 415.326C62.1336 430.591 66.0866 445.553 71.2458 460.294C74.3888 469.274 77.4508 478.199 80.7044 487.146C82.4927 492.064 83.4708 497.001 85.3535 501.895C86.7493 505.525 89.3614 508.097 89.3614 512.316" stroke="white" stroke-width="4" stroke-linecap="round"/>
<path d="M2.79156 230.964C18.7686 204.541 55.5136 191.664 82.7885 179.663C91.4273 175.862 99.1699 169.101 106.355 163.151C115.548 155.538 125.738 149.112 135.532 142.31C143.594 136.712 150.794 130.327 158.617 124.515C163.429 120.941 171.068 119.563 176.653 117.702C184.602 115.052 192.268 111.297 200.139 108.323C204.86 106.54 211.364 106.922 215.609 104.636C225.203 99.4702 235.976 95.892 243.824 88.0437C258.814 73.0544 278.469 63.6587 293.602 48.5262C302.396 39.7324 312.63 31.6827 323.901 26.7234C336.409 21.2199 347.681 2.99689 361.335 2.99689C366.468 2.99689 368.598 14.5234 369.992 18.1466C374.105 28.8397 377.927 41.165 377.927 52.6944C377.927 66.6949 377.11 87.5888 385.943 98.9451C394.791 110.321 403.719 123.654 414.72 132.21C421.139 137.203 423.034 145.581 428.426 151.608C431.322 154.845 436.175 160.02 439.969 162.029C447.507 166.02 450.069 172.323 450.069 180.786C450.069 193.73 451.582 207.635 453.275 220.544C455.11 234.531 459.779 246.87 467.383 258.698C473.859 268.772 471.108 269.052 463.375 276.012C457.795 281.034 450.962 285.059 444.298 288.677C428.039 297.503 413.111 310.184 399.89 322.984C385.724 336.701 366.061 344.418 353.079 359.376C337.219 377.649 314.432 387.744 297.129 404.104C282.616 417.825 260.67 425.13 242.622 433.281C224.849 441.307 208.152 453.402 193.245 465.825C183.094 474.284 173.48 485.604 161.503 490.994C153.018 494.812 143.184 493.559 134.089 493.559C123.508 493.559 93.3692 493.559 82.7885 493.559" stroke="white" stroke-width="4" stroke-linecap="round"/>
<path d="M82.1472 578.686C83.4953 570.429 82.3619 553.168 87.5979 546.623C94.0062 538.613 78.1153 533.229 77.8187 528.187C77.3726 520.602 86.1247 509.465 92.247 506.224C95.687 504.403 102.83 503.824 104.912 507.987C107.077 512.317 103.287 517.974 106.996 522.095C112.789 528.532 112.814 536.838 105.232 540.852C102.692 542.197 105.232 560.1 105.232 564.258C105.232 572.983 105.909 581.634 98.0183 585.58C93.9529 587.612 91.0045 588.786 86.4757 588.786C80.6203 588.786 82.1472 585.092 82.1472 580.129" stroke="white" stroke-width="4" stroke-linecap="round"/>
<path d="M79.2615 584.457C79.2615 595.775 76.3759 607.173 76.3759 618.364C76.3759 625.082 72.1163 637.567 76.3759 642.892C80.9696 648.634 90.1089 651.961 96.5755 654.835C100.754 656.692 105.019 656.599 109.561 656.599C114.433 656.599 116.829 652.252 121.104 650.828" stroke="white" stroke-width="4" stroke-linecap="round"/>
<path d="M103.79 583.015C104.013 591.945 103.79 601.273 103.79 609.707C103.79 616.965 102.951 605.421 107.317 609.787C109.027 611.497 109.561 619.493 109.561 621.971C109.561 626.726 108.908 629.211 106.996 633.514C106.359 634.947 105.329 637.745 105.232 639.285C105.157 640.497 105.576 633.017 105.954 631.429C107.059 626.789 106.942 621.399 108.198 617.001C108.506 615.925 116.795 614.757 118.218 614.757" stroke="white" stroke-width="4" stroke-linecap="round"/>
<path d="M105.232 564.258C108.461 584.034 116.786 600.74 121.023 619.807C122.796 627.782 126.527 635.193 128.238 642.892C129.07 646.638 132.373 660.79 135.532 662.37" stroke="white" stroke-width="4" stroke-linecap="round"/>
<path d="M106.675 545.501C106.675 555.684 109.579 571.793 114.611 580.85C116.447 584.156 118.218 591.462 118.218 595.279C118.218 599.941 122.046 604.736 122.546 608.985C122.771 610.897 126.128 618.873 127.196 620.208C129.789 623.449 129.768 628.909 131.925 632.792C136.053 640.222 136.02 650.36 139.86 658.042" stroke="white" stroke-width="4" stroke-linecap="round"/>
<path d="M125.432 597.443C131.986 593.606 137.917 593.337 144.189 590.549C148.604 588.587 151.403 592.425 151.403 585.9C151.403 582.653 148.226 580.362 151.724 577.564C153.64 576.031 157.072 580.668 158.297 581.892C162.073 585.669 169.768 592.554 166.954 598.886C165.715 601.673 161.847 604.621 161.503 607.543C160.528 615.827 162.962 610.201 167.996 614.116C176.333 620.6 171.603 650.279 171.603 660.206C171.603 662.169 172.863 670.46 169.519 669.504C165.045 668.226 165.831 669.603 165.831 674.634C165.831 678.932 168.3 693.713 161.503 694.112C152.005 694.671 151.022 699.884 161.823 699.884C169.38 699.884 176.56 698.441 184.588 698.441C193.686 698.441 202.916 701.327 212.323 701.327C221.298 701.327 229.566 702.769 238.694 702.769C249.637 702.769 255.158 707.538 256.81 692.67C257.779 683.951 258.686 675.435 263.944 668.863C269.743 661.614 269.715 646.148 269.715 637.121C269.715 628.839 270.071 617.456 265.387 610.428" stroke="white" stroke-width="4" stroke-linecap="round"/>
<path d="M263.944 611.871C255.826 607.119 252.256 602.311 246.63 595.279C243.41 591.253 232.68 593.754 227.873 591.351C219.573 587.201 220.875 581.463 219.136 573.636C218.307 569.905 216.04 564.317 213.124 561.693C210.136 559.004 212.002 566.518 212.002 567.865C212.002 579.35 201.926 591.562 191.161 594.637C184.92 596.421 181.18 603.154 184.268 608.985C187.279 614.673 182.199 619.085 175.931 619.085" stroke="white" stroke-width="4" stroke-linecap="round"/>
<path d="M167.274 672.47C180.669 672.47 194.36 675.188 206.952 672.39C211.437 671.393 216.994 665.459 220.659 665.256C227.047 664.901 229.674 665.831 234.366 669.584C237.229 671.875 239.416 682.591 239.416 674.233C239.416 666.111 233.377 661.269 225.709 659.565C223.538 659.082 220.877 659.485 218.655 659.485C215.537 659.485 224.437 656.719 227.552 656.599C233.905 656.355 236.181 657.351 239.416 663.011C243.006 669.294 244.955 655.084 241.5 651.629C237.943 648.072 230.968 649.385 226.43 649.385C219.094 649.385 215.531 651.627 222.823 644.335C227.338 639.82 231.653 636.838 236.209 633.193C237.863 631.87 239.669 632.459 241.179 630.949C244.217 627.911 237.062 630.369 235.809 631.43C230.634 635.808 225.756 639.635 220.98 643.934C219.018 645.699 217.773 642.544 217.773 640.407C217.773 637.216 220.944 630.983 222.903 628.464C225.555 625.054 229.316 620.726 229.316 616.2" stroke="white" stroke-width="4" stroke-linecap="round"/>
<path d="M119.661 652.27C119.344 668.122 113.314 683.627 110.924 699.162C108.982 711.786 106.675 724.532 106.675 737.397C106.675 774.97 98.0183 812.356 98.0183 849.938C98.0183 862.177 96.5755 874.811 96.5755 886.73C96.5755 894.528 96.1414 904.884 98.339 912.3C100.391 919.224 99.4612 927.107 99.4612 934.344C99.4612 942.134 105.912 940.836 112.447 940.836C118.939 940.836 125.432 940.836 131.925 940.836C136.309 940.836 134.089 897.602 134.089 891.78C134.089 873.9 139.86 856.153 139.86 838.395C139.86 828.745 142.215 816.086 144.51 806.653C149.547 785.945 157.032 765.695 158.617 744.291C159.635 730.551 165.831 716.297 165.831 702.769" stroke="white" stroke-width="4" stroke-linecap="round"/>
<path d="M242.301 705.655C242.301 724.89 243.744 744.396 243.744 763.368C243.744 768.011 246.63 772.712 246.63 777.797C246.63 785.558 245.187 793.388 245.187 800.882C245.187 816.652 243.744 832.589 243.744 848.575C243.744 874.018 245.187 899.177 245.187 924.645C245.187 930.961 245.558 937.413 245.187 943.722C244.928 948.132 233.64 946.608 230.759 946.608C219.153 946.608 207.303 945.165 195.329 945.165C180.984 945.165 167.799 948.051 153.567 948.051C148.277 948.051 142.987 948.051 137.696 948.051C132.742 948.051 129.328 944.227 125.432 942.279" stroke="white" stroke-width="4" stroke-linecap="round"/>
<path d="M119.661 946.608C119.661 959.911 118.218 942.937 118.218 956.285C118.218 966.684 119.732 967.523 122 977.5C125.794 994.195 124.795 1006.45 126.5 1023.5C127.776 1029.24 148.5 1093 150.632 1121.91C150.632 1131.33 140.501 1136.04 133.318 1140.27C130.213 1142.09 128.281 1147 124.661 1149.33C120.021 1152.31 115.762 1156 111.034 1158.7C105.205 1162.03 94.9595 1173.62 104.11 1177.14C125.761 1185.47 134.687 1167.38 151.403 1159.02C157.035 1156.21 168.16 1155.27 171.603 1149.25C174.47 1144.23 177.374 1143.64 177.374 1137.38C177.374 1129.61 175.263 1124.24 173.366 1116.86C166.066 1088.47 175.343 1057.22 169.038 1028.85C166.065 1015.47 160.06 998.509 160.06 984.843C160.06 972.098 160.06 959.353 160.06 946.608" stroke="white" stroke-width="4" stroke-linecap="round"/>
<path d="M187.474 949.493C187.474 977.214 185.094 997.017 190 1024C191.085 1029.97 192.697 1039.5 194 1045C195.996 1053.43 197.5 1059.5 199.253 1076.14C200.871 1091.5 202.574 1104.81 202.574 1118.3C202.574 1136.26 207 1142.83 190 1166C186.291 1171.83 183 1182.27 183 1189C183 1189 182.817 1198.52 184.5 1199C191.667 1199 197.758 1199.32 200.574 1196.5C207.436 1189.64 215.674 1168.18 218.5 1159C220.776 1151.6 221.5 1136.6 221.5 1129C221.5 1109.14 230.545 1050.07 230.545 1031C230.545 1002.36 230.545 1018.88 230.545 990.5C230.545 973.926 226 962.974 226 946.5" stroke="white" stroke-width="4" stroke-linecap="round"/>
<path d="M174.806 520.761C177.401 527.02 182.949 534.581 190.929 534.581C195.947 534.581 200.839 533.904 202.786 539.528C207.231 552.368 210.122 564.045 210.122 577.574" stroke="white" stroke-width="4" stroke-linecap="round"/>
<path d="M174.806 510.013C176.802 519.105 180.035 524.017 187.773 528.439C192.216 530.978 197.894 530.295 202.445 532.704C212.861 538.218 213.193 560.162 213.193 569.897" stroke="white" stroke-width="4" stroke-linecap="round"/>
<path d="M170.5 496C187 492 195.5 492.5 210.8 499.264C221.548 505 231.619 516.151 231.619 528.097C231.619 539.869 231.619 551.642 231.619 563.414C231.619 571.729 233.245 582.814 228.548 589.858" stroke="white" stroke-width="4" stroke-linecap="round"/>
<path d="M165.593 499.264C153.893 503.83 147.972 507.386 143.755 519.567C140.431 529.17 142.561 536.427 142.561 546.097C142.561 549.835 145.632 553.107 145.632 556.845C145.632 560.94 145.632 565.034 145.632 569.129C145.632 575.436 146.158 588.059 139.49 591.394" stroke="white" stroke-width="4" stroke-linecap="round"/>
<path d="M155.38 514.832C155.38 514.832 151.774 520.139 151.774 532.452C151.774 541.404 154.344 562.253 160.399 568.981C176.785 587.188 200 566.5 203.051 550.148" stroke="white" stroke-width="4" stroke-linecap="round"/>
<path d="M136.023 674.286C133.753 671.163 131.847 664.841 135.417 661.985C137.304 660.475 143.325 659.472 145.769 659.472C147.003 659.472 150.354 660.18 148.887 659.039C147.443 657.916 145.99 656.754 144.772 655.401C143.724 654.236 142.065 647.865 140.355 647.865C140.103 647.865 143.225 651.858 143.386 652.066C144.405 653.375 145.24 654.528 146.548 655.574C148.67 657.272 150.596 659.665 152.569 661.638C154.975 664.044 156.598 667.037 158.243 669.998C160.121 673.378 162.531 674.927 162.531 678.963" stroke="white" stroke-width="4" stroke-linecap="round"/>
<path d="M156.12 693.72C154.406 692.992 152.342 691.491 152.98 689.26C153.453 687.602 151.711 688.743 150.574 688.995C147.984 689.571 144.079 691.59 142.944 687.616C142.778 687.036 143.271 683.747 143.208 683.684C142.23 682.706 140.265 683.96 139.334 682.099C138.723 680.876 139.274 678.341 138.571 677.463C137.806 676.506 137.104 675.451 137.104 674.176" stroke="white" stroke-width="4" stroke-linecap="round"/>
<path d="M166.157 560.321C170.042 556.436 178.518 554.859 182.735 559.076C183.773 560.114 176.255 561.801 175.527 562.025C172.93 562.824 169.51 561.998 167.336 560.911" stroke="white" stroke-width="4" stroke-linecap="round"/>
<path d="M157.131 533.681C158.415 531.627 161.129 531.322 163.471 531.322C164.655 531.322 167.519 532.932 168.041 533.975" stroke="white" stroke-width="4" stroke-linecap="round"/>
<path d="M178.131 533.681C179.415 531.627 182.129 531.322 184.471 531.322C185.655 531.322 188.519 532.932 189.041 533.975" stroke="white" stroke-width="4" stroke-linecap="round"/>
<path d="M25.1611 308.161C30.7579 295.102 39.7191 291.448 50.6749 283.546C58.4222 277.957 65.0335 270.73 72.8647 265.309C85.812 256.345 100.091 246.26 114.1 238.986C132.392 229.489 149.765 217.652 168.272 208.801C176.813 204.716 183.807 200.281 191.36 194.966C199.589 189.176 209.943 187.421 219.12 183.557C245.382 172.499 266.454 155.52 290.002 140.345C298.399 134.933 306.886 128.856 314.617 122.557C320.419 117.83 327.716 114.631 333.213 109.98C340.238 104.036 347.261 96.4107 355.044 91.8327C360.528 88.6066 364.055 82.2317 369.598 78.5367" stroke="white" stroke-width="4" stroke-linecap="round"/>
<path d="M57.5025 408.42C71.3552 381.247 92.6825 361.747 118.951 346.971C143.135 333.368 169.369 321.301 194.594 309.778C220.359 298.009 244.506 281.567 267.003 264.5C285.449 250.507 304.179 238.268 320.726 222.097C333.368 209.742 350.291 200.297 364.836 190.115C375.566 182.604 389.401 178.397 398.705 169.093C404.943 162.854 415.852 154.203 419.727 146.454" stroke="white" stroke-width="4" stroke-linecap="round"/>
<path d="M87.1292 271.174C70.837 281.648 52.669 299.695 37 311.09C37 324.835 40.2341 327.146 40.2341 332.112C40.2341 339.697 42.5864 347.171 44.726 354.392C46.0626 358.903 45.2832 377.579 49.9366 379.906C50.5696 380.222 54.6108 403.435 55.1471 402.898C57.6002 400.445 60.8932 397.521 63.6817 395.352C82.0992 381.027 100.77 346.841 121.088 334.835C133.972 327.222 146.428 319.021 159.898 312.286C169.203 307.634 179.801 315.637 188.645 300.068C198.546 293.834 208.204 287.383 217.753 280.663C228.061 273.41 238.752 268.087 249.196 261.258C258.291 255.312 269.032 252.542 278.303 246.705C286.771 241.373 296.46 226.996 304.626 221.343C314.519 214.493 326.212 227.751 333.733 218.559C341.057 209.608 350.443 204.158 358.797 196.639C364.552 191.46 414.578 154.605 415 147C415.263 142.269 406.342 138.834 399.5 131.5C392.679 124.187 386.288 123.364 386.288 117.666C386.288 113.817 365.021 65.3296 361.223 67.5C359.095 68.716 355.595 78.5062 354 80.5C351.764 83.2956 344 90 361.223 109.765C353.698 117.289 338.011 95.7851 330.5 103.296C314.74 119.056 289.659 131.692 273.5 147C259.603 160.166 261.479 183.5 240.5 183.5C221.6 183.5 195.518 203.192 180.919 212.577C173.208 217.534 165.023 221.903 157.472 227.13C148.87 233.086 141.463 240.666 132.407 245.727C117.095 254.283 101.871 261.697 87.1292 271.174Z" fill="white" stroke="white" stroke-width="20" stroke-linecap="round"/>
<path d="M63.9708 199.009C47.6786 209.482 29.5105 217.529 13.8416 228.925C13.8416 242.67 17.0757 244.98 17.0757 249.947C17.0757 257.532 19.428 265.005 21.5676 272.226C22.9041 276.737 22.1247 295.413 26.7781 297.74C27.4112 298.057 31.4523 291.269 31.9887 290.733C34.4418 288.28 37.7348 285.355 40.5233 283.186C58.9407 268.862 77.6111 254.676 97.9293 242.67C110.814 235.056 123.269 226.856 136.739 220.12C146.044 215.468 156.642 213.472 165.487 207.903C175.388 201.669 185.045 195.217 194.594 188.498C204.902 181.244 215.594 175.921 226.037 169.093C235.132 163.146 245.873 160.377 255.145 154.539C263.613 149.207 273.301 144.83 281.467 139.177C291.361 132.328 303.054 122.586 310.574 113.394C317.898 104.442 327.285 98.9924 335.639 91.4734C341.394 86.2942 365.078 77.1046 365.5 69.5001C365.763 64.7695 365.5 59.5 365.5 53C365.5 43 363.129 41.1989 363.129 35.5C363.129 31.6515 359.798 11.8296 356 14C353.872 15.216 348.554 19.1369 346.959 21.1307C344.722 23.9263 340.609 25.0542 338.065 27.599C330.54 35.1237 318.894 37.0671 311.383 44.5783C295.623 60.3383 274.178 68.0799 258.02 83.388C244.122 96.5537 224.826 118.964 203.848 118.964C184.948 118.964 172.359 133.027 157.761 142.411C150.05 147.369 141.864 151.737 134.313 156.965C125.711 162.92 118.304 170.501 109.249 175.561C93.9368 184.118 78.713 189.532 63.9708 199.009Z" fill="#008CFF" stroke="#008CFF" stroke-width="20" stroke-linecap="round"/>
<path d="M106.823 362.333C87.0182 376.044 76.4945 391.115 63.9708 411.654C67.5 426 72.0644 445.002 78.5245 459.537C82.4359 468.338 87.3266 484.095 92 492.507H104.398C112.227 492.507 119.246 489.273 127.396 489.273C136.919 489.273 142.319 485.514 151.383 483.5C166.852 480.062 185.924 465.063 196.93 454.057C203.359 447.628 210.792 441.637 217.593 435.91C222.284 431.96 232.466 430.266 238.255 429.082C244.756 427.752 250.234 424.736 256.402 422.973C266.882 419.979 276.441 409.352 283.084 401.233C290.152 392.594 302.402 383.7 311.742 377.695C325.113 369.1 339.745 364.097 353.067 355.056C365.905 346.345 377.299 334.418 388.194 323.523C394.103 317.614 400.838 313.204 406.072 306.544C409.714 301.908 415.051 294.945 419.727 291.272C429.093 283.912 439.357 279.143 449.193 272.585C456.654 267.612 464.223 264.617 455.662 256.055C451.937 252.33 446.46 241.337 445.51 236.111C443.691 226.107 439.132 217.544 439.132 207.004C439.132 202.531 441.555 187.484 438.772 184.006C433.83 177.828 427.997 179.178 425.836 169.991C425.633 169.128 422.479 156.875 421.344 156.875C420.747 156.875 412.999 164.236 411.552 165.05C389.474 177.469 373.425 196.794 351.45 210.777C323.827 228.356 297.107 246.189 272.483 267.734C247.676 289.441 222.486 303.289 193.337 317.864C183.81 322.627 174.699 328.352 165.487 333.675C161.061 336.232 156.027 337.604 151.383 339.694C147.432 341.472 145.352 345.09 141.59 346.971C129.943 352.795 117.838 354.707 106.823 362.333Z" fill="#008CFF" stroke="#008CFF" stroke-width="20" stroke-linecap="round"/>
</svg>
