<svg width="24" height="24" viewBox="0 0 24 24" fill="none" xmlns="http://www.w3.org/2000/svg">
<path fill-rule="evenodd" clip-rule="evenodd" d="M17.31 15.31C17.02 15.47 16.78 15.54 16.58 15.59C16.41 15.63 16.27 15.67 16.15 15.75C16.02 15.83 16.01 15.96 15.99 16.08C15.97 16.19 15.96 16.28 15.88 16.34C15.79 16.4 15.62 16.41 15.39 16.42C15.09 16.44 14.71 16.45 14.25 16.59C14.03 16.67 13.83 16.79 13.63 16.91C13.23 17.16 12.78 17.43 11.99 17.43C11.21 17.43 10.76 17.16 10.36 16.91C10.16 16.78 9.96 16.66 9.73 16.58C9.28 16.44 8.88999 16.42 8.58999 16.41C8.35999 16.4 8.2 16.39 8.1 16.33C8.02 16.28 8.00998 16.18 7.98998 16.07C7.96998 15.95 7.95998 15.82 7.82998 15.74C7.70998 15.66 7.55999 15.62 7.39999 15.57C7.19999 15.52 6.96001 15.46 6.67001 15.3C6.33001 15.11 6.53001 15 6.64001 14.94C8.57001 14.01 8.87 12.57 8.88 12.46C8.88 12.45 8.88 12.45 8.88 12.44C8.9 12.32 8.90998 12.22 8.76998 12.09C8.67998 12 8.36999 11.8 8.11999 11.64C8.00999 11.56 7.91 11.5 7.85 11.47C7.57 11.27 7.45 11.08 7.54 10.83C7.6 10.66 7.76001 10.6 7.92001 10.6C7.97001 10.6 8.03 10.61 8.07 10.62C8.25 10.66 8.42999 10.73 8.58999 10.79C8.69999 10.84 8.78998 10.87 8.85998 10.89C8.87998 10.9 8.91001 10.9 8.92001 10.9C9.02001 10.9 9.05 10.85 9.04 10.75C9.04 10.72 9.03999 10.69 9.02999 10.66C9.00999 10.31 8.97998 9.70001 9.01998 9.14001C9.09998 8.30001 9.36999 7.87001 9.68999 7.51001C9.84999 7.33001 10.58 6.56 11.97 6.56C13.36 6.56 14.09 7.33 14.25 7.5C14.57 7.87 14.84 8.29001 14.92 9.14001C14.97 9.73001 14.93 10.36 14.9 10.71V10.74C14.89 10.85 14.92 10.89 15.02 10.89C15.04 10.89 15.06 10.89 15.08 10.88C15.15 10.86 15.24 10.83 15.35 10.79C15.5 10.73 15.68 10.66 15.87 10.62C15.92 10.6 15.97 10.6 16.02 10.6C16.19 10.6 16.34 10.67 16.4 10.84C16.49 11.08 16.37 11.27 16.09 11.47C16.04 11.51 15.94 11.58 15.82 11.64C15.58 11.8 15.26 12 15.17 12.09C15.03 12.22 15.04 12.32 15.06 12.44C15.06 12.45 15.06 12.46 15.06 12.46C15.08 12.57 15.38 14.01 17.3 14.94C17.45 15 17.65 15.12 17.31 15.31Z" stroke="white" stroke-width="1.5" stroke-miterlimit="10" stroke-linejoin="round"/>
<path d="M4 6C2.75 7.67 2 9.75 2 12C2 17.52 6.48 22 12 22C17.52 22 22 17.52 22 12C22 6.48 17.52 2 12 2C10.57 2 9.2 2.30001 7.97 2.85001" stroke="white" stroke-width="1.5" stroke-linecap="round" stroke-linejoin="round"/>
</svg>
