<svg width="40" height="28" viewBox="0 0 40 28" fill="none" xmlns="http://www.w3.org/2000/svg">
<path d="M2.61762 7.22325C1.61066 5.9075 1.86099 4.02457 3.17675 3.01762C4.4925 2.01066 6.37543 2.26099 7.38238 3.57675L2.61762 7.22325ZM32.6 3.2C33.5941 1.87452 35.4745 1.60589 36.8 2.6C38.1255 3.59411 38.3941 5.47452 37.4 6.8L32.6 3.2ZM23.9597 19.7203L21.5597 17.9203L23.9597 19.7203ZM13.6067 21.5823L2.61762 7.22325L7.38238 3.57675L18.3715 17.9358L13.6067 21.5823ZM21.5597 17.9203L32.6 3.2L37.4 6.8L26.3597 21.5203L21.5597 17.9203ZM18.3715 17.9358C19.1769 18.9883 20.7646 18.9805 21.5597 17.9203L26.3597 21.5203C23.1792 25.7611 16.8284 25.792 13.6067 21.5823L18.3715 17.9358Z" fill="#008CFF"/>
</svg>
