<svg width="40" height="28" viewBox="0 0 40 28" fill="none" xmlns="http://www.w3.org/2000/svg">
<path d="M2.61762 20.7767C1.61066 22.0925 1.86099 23.9754 3.17675 24.9824C4.4925 25.9893 6.37543 25.739 7.38238 24.4233L2.61762 20.7767ZM32.6 24.8C33.5941 26.1255 35.4745 26.3941 36.8 25.4C38.1255 24.4059 38.3941 22.5255 37.4 21.2L32.6 24.8ZM23.9597 8.27966L21.5597 10.0797L23.9597 8.27966ZM13.6067 6.41765L2.61762 20.7767L7.38238 24.4233L18.3715 10.0642L13.6067 6.41765ZM21.5597 10.0797L32.6 24.8L37.4 21.2L26.3597 6.47966L21.5597 10.0797ZM18.3715 10.0642C19.1769 9.01175 20.7646 9.01947 21.5597 10.0797L26.3597 6.47966C23.1792 2.23889 16.8284 2.20801 13.6067 6.41765L18.3715 10.0642Z" fill="#008CFF"/>
</svg>
